<svg xmlns="http://www.w3.org/2000/svg" xmlns:xlink="http://www.w3.org/1999/xlink" width="500" zoomAndPan="magnify" viewBox="0 0 375 374.999991" height="500" preserveAspectRatio="xMidYMid meet" version="1.0"><defs><g/></defs><path fill="#8e48c1" d="M 109.375 265.625 C 152.523438 308.773438 222.476562 308.773438 265.625 265.625 L 242.1875 242.1875 C 211.984375 272.390625 163.015625 272.390625 132.8125 242.1875 Z M 109.375 265.625 " fill-opacity="1" fill-rule="nonzero"/><path fill="#8e48c1" d="M 109.375 109.375 C 152.523438 66.226562 222.476562 66.226562 265.625 109.375 L 242.1875 132.8125 C 211.984375 102.609375 163.015625 102.609375 132.8125 132.8125 Z M 109.375 109.375 " fill-opacity="1" fill-rule="nonzero"/><g fill="#8e48c1" fill-opacity="1"><g transform="translate(0.0608465, 206.969437)"><g><path d="M 11.75 0 L 1.484375 0 L 17.125 -45.3125 L 29.46875 -45.3125 L 45.078125 0 L 34.828125 0 L 31.453125 -10.328125 L 15.109375 -10.328125 Z M 17.546875 -17.8125 L 29.046875 -17.8125 L 23.46875 -34.953125 L 23.125 -34.953125 Z M 17.546875 -17.8125 "/></g></g></g><g fill="#8e48c1" fill-opacity="1"><g transform="translate(46.654245, 206.969437)"><g><path d="M 31.984375 -45.3125 L 41.5 -45.3125 L 41.5 -15.359375 C 41.5 -11.929688 40.691406 -9.023438 39.078125 -6.640625 C 37.472656 -4.265625 35.257812 -2.457031 32.4375 -1.21875 C 29.613281 0.0195312 26.375 0.640625 22.71875 0.640625 C 19.0625 0.640625 15.816406 0.0195312 12.984375 -1.21875 C 10.148438 -2.457031 7.929688 -4.265625 6.328125 -6.640625 C 4.734375 -9.023438 3.9375 -11.929688 3.9375 -15.359375 L 3.9375 -45.3125 L 13.515625 -45.3125 L 13.515625 -15.6875 C 13.515625 -13.269531 14.390625 -11.363281 16.140625 -9.96875 C 17.890625 -8.582031 20.082031 -7.890625 22.71875 -7.890625 C 25.40625 -7.890625 27.617188 -8.582031 29.359375 -9.96875 C 31.109375 -11.363281 31.984375 -13.269531 31.984375 -15.6875 Z M 31.984375 -45.3125 "/></g></g></g><g fill="#8e48c1" fill-opacity="1"><g transform="translate(92.097171, 206.969437)"><g><path d="M 2.21875 -37.40625 L 2.21875 -45.3125 L 39.421875 -45.3125 L 39.421875 -37.40625 L 25.546875 -37.40625 L 25.546875 0 L 16.078125 0 L 16.078125 -37.40625 Z M 2.21875 -37.40625 "/></g></g></g><g fill="#8e48c1" fill-opacity="1"><g transform="translate(133.734738, 206.969437)"><g><path d="M 45.578125 -22.65625 C 45.578125 -17.71875 44.640625 -13.515625 42.765625 -10.046875 C 40.898438 -6.578125 38.367188 -3.929688 35.171875 -2.109375 C 31.972656 -0.285156 28.367188 0.625 24.359375 0.625 C 20.328125 0.625 16.710938 -0.285156 13.515625 -2.109375 C 10.316406 -3.941406 7.785156 -6.59375 5.921875 -10.0625 C 4.066406 -13.539062 3.140625 -17.738281 3.140625 -22.65625 C 3.140625 -27.59375 4.066406 -31.796875 5.921875 -35.265625 C 7.785156 -38.734375 10.316406 -41.375 13.515625 -43.1875 C 16.710938 -45.007812 20.328125 -45.921875 24.359375 -45.921875 C 28.367188 -45.921875 31.972656 -45.007812 35.171875 -43.1875 C 38.367188 -41.375 40.898438 -38.734375 42.765625 -35.265625 C 44.640625 -31.796875 45.578125 -27.59375 45.578125 -22.65625 Z M 35.859375 -22.65625 C 35.859375 -27.457031 34.8125 -31.125 32.71875 -33.65625 C 30.625 -36.1875 27.835938 -37.453125 24.359375 -37.453125 C 20.878906 -37.453125 18.09375 -36.1875 16 -33.65625 C 13.90625 -31.125 12.859375 -27.457031 12.859375 -22.65625 C 12.859375 -17.863281 13.90625 -14.195312 16 -11.65625 C 18.09375 -9.125 20.878906 -7.859375 24.359375 -7.859375 C 27.835938 -7.859375 30.625 -9.125 32.71875 -11.65625 C 34.8125 -14.195312 35.859375 -17.863281 35.859375 -22.65625 Z M 35.859375 -22.65625 "/></g></g></g><g fill="#8e48c1" fill-opacity="1"><g transform="translate(182.452021, 206.969437)"><g><path d="M 3.9375 -45.3125 L 15.75 -45.3125 L 28.234375 -14.859375 L 28.765625 -14.859375 L 41.234375 -45.3125 L 53.046875 -45.3125 L 53.046875 0 L 43.765625 0 L 43.765625 -29.484375 L 43.375 -29.484375 L 31.65625 -0.21875 L 25.328125 -0.21875 L 13.609375 -29.59375 L 13.234375 -29.59375 L 13.234375 0 L 3.9375 0 Z M 3.9375 -45.3125 "/></g></g></g><g fill="#8e48c1" fill-opacity="1"><g transform="translate(240.018967, 206.969437)"><g><path d="M 11.75 0 L 1.484375 0 L 17.125 -45.3125 L 29.46875 -45.3125 L 45.078125 0 L 34.828125 0 L 31.453125 -10.328125 L 15.109375 -10.328125 Z M 17.546875 -17.8125 L 29.046875 -17.8125 L 23.46875 -34.953125 L 23.125 -34.953125 Z M 17.546875 -17.8125 "/></g></g></g><g fill="#8e48c1" fill-opacity="1"><g transform="translate(286.612365, 206.969437)"><g><path d="M 11.75 0 L 1.484375 0 L 17.125 -45.3125 L 29.46875 -45.3125 L 45.078125 0 L 34.828125 0 L 31.453125 -10.328125 L 15.109375 -10.328125 Z M 17.546875 -17.8125 L 29.046875 -17.8125 L 23.46875 -34.953125 L 23.125 -34.953125 Z M 17.546875 -17.8125 "/></g></g></g><g fill="#8e48c1" fill-opacity="1"><g transform="translate(333.205764, 206.969437)"><g><path d="M 2.21875 -37.40625 L 2.21875 -45.3125 L 39.421875 -45.3125 L 39.421875 -37.40625 L 25.546875 -37.40625 L 25.546875 0 L 16.078125 0 L 16.078125 -37.40625 Z M 2.21875 -37.40625 "/></g></g></g></svg>