<svg xmlns="http://www.w3.org/2000/svg" xmlns:xlink="http://www.w3.org/1999/xlink" width="500" zoomAndPan="magnify" viewBox="0 0 375 374.999991" height="500" preserveAspectRatio="xMidYMid meet" version="1.0"><defs><g/><clipPath id="37296c0864"><path d="M 100.585938 169.171875 L 165.40625 169.171875 L 165.40625 204.394531 L 100.585938 204.394531 Z M 100.585938 169.171875 " clip-rule="nonzero"/></clipPath><clipPath id="ea801b171d"><path d="M 119.023438 169.273438 C 146.699219 171.226562 146.851562 170.023438 147.976562 169.726562 C 149.476562 169.425781 151.726562 169.949219 153.449219 170.550781 C 155.175781 171.074219 156.898438 171.898438 158.324219 173.023438 C 159.824219 174.074219 161.175781 175.425781 162.226562 176.925781 C 163.273438 178.425781 164.101562 180.148438 164.625 181.875 C 165.148438 183.601562 165.375 185.550781 165.375 187.351562 C 165.300781 189.148438 164.925781 191.023438 164.25 192.75 C 163.648438 194.398438 162.675781 196.125 161.550781 197.476562 C 160.351562 198.898438 158.925781 200.175781 157.425781 201.148438 C 155.851562 202.125 154.050781 202.875 152.324219 203.25 C 150.601562 203.699219 148.648438 203.851562 146.851562 203.699219 C 145.050781 203.550781 143.175781 203.023438 141.523438 202.351562 C 139.875 201.601562 138.226562 200.550781 136.875 199.351562 C 135.523438 198.148438 134.324219 196.574219 133.5 195 C 132.601562 193.425781 131.925781 191.625 131.625 189.824219 C 131.25 188.023438 131.25 186.148438 131.476562 184.351562 C 131.773438 182.550781 132.300781 180.675781 133.125 179.101562 C 133.949219 177.449219 135.074219 175.875 136.351562 174.601562 C 137.699219 173.324219 139.273438 172.273438 140.851562 171.449219 C 142.5 170.625 144.375 170.101562 146.175781 169.875 C 147.976562 169.648438 149.851562 169.726562 151.648438 170.023438 C 153.449219 170.398438 155.25 171.074219 156.824219 171.976562 C 158.398438 172.875 159.898438 174.148438 161.101562 175.5 C 162.300781 176.851562 163.273438 178.5 164.023438 180.148438 C 164.699219 181.800781 165.148438 183.675781 165.300781 185.476562 C 165.449219 187.273438 165.300781 189.226562 164.851562 190.949219 C 164.398438 192.75 163.574219 194.476562 162.601562 195.976562 C 161.625 197.550781 160.351562 198.976562 158.925781 200.101562 C 157.5 201.226562 156.226562 202.050781 154.050781 202.726562 C 150.675781 203.851562 144.824219 204.300781 139.949219 204.375 C 134.699219 204.375 128.550781 203.550781 123.523438 202.875 C 119.101562 202.273438 114.074219 201.75 111.300781 200.773438 C 109.726562 200.25 108.824219 199.726562 107.773438 198.976562 C 106.726562 198.226562 105.75 197.550781 104.851562 196.351562 C 103.5 194.625 101.773438 191.851562 101.175781 189.375 C 100.574219 186.976562 100.574219 184.050781 101.175781 181.574219 C 101.773438 179.101562 103.125 176.550781 104.773438 174.675781 C 106.5 172.726562 108.898438 171.074219 111.226562 170.175781 C 113.625 169.273438 119.023438 169.273438 119.023438 169.273438 " clip-rule="nonzero"/></clipPath></defs><g clip-path="url(#37296c0864)"><g clip-path="url(#ea801b171d)"><path fill="#ffffff" d="M 98.175781 166.273438 L 168.300781 166.273438 L 168.300781 207.449219 L 98.175781 207.449219 Z M 98.175781 166.273438 " fill-opacity="1" fill-rule="nonzero"/></g></g><path fill="#8e48c1" d="M 109.375 265.625 C 152.523438 308.773438 222.476562 308.773438 265.625 265.625 L 242.1875 242.1875 C 211.984375 272.390625 163.015625 272.390625 132.8125 242.1875 Z M 109.375 265.625 " fill-opacity="1" fill-rule="nonzero"/><path fill="#8e48c1" d="M 109.375 109.375 C 152.523438 66.226562 222.476562 66.226562 265.625 109.375 L 242.1875 132.8125 C 211.984375 102.609375 163.015625 102.609375 132.8125 132.8125 Z M 109.375 109.375 " fill-opacity="1" fill-rule="nonzero"/><g fill="#8e48c1" fill-opacity="1"><g transform="translate(0.0608465, 206.969437)"><g><path d="M 11.75 0 L 1.484375 0 L 17.125 -45.3125 L 29.46875 -45.3125 L 45.078125 0 L 34.828125 0 L 31.453125 -10.328125 L 15.109375 -10.328125 Z M 17.546875 -17.8125 L 29.046875 -17.8125 L 23.46875 -34.953125 L 23.125 -34.953125 Z M 17.546875 -17.8125 "/></g></g></g><g fill="#8e48c1" fill-opacity="1"><g transform="translate(46.654245, 206.969437)"><g><path d="M 31.984375 -45.3125 L 41.5 -45.3125 L 41.5 -15.359375 C 41.5 -11.929688 40.691406 -9.023438 39.078125 -6.640625 C 37.472656 -4.265625 35.257812 -2.457031 32.4375 -1.21875 C 29.613281 0.0195312 26.375 0.640625 22.71875 0.640625 C 19.0625 0.640625 15.816406 0.0195312 12.984375 -1.21875 C 10.148438 -2.457031 7.929688 -4.265625 6.328125 -6.640625 C 4.734375 -9.023438 3.9375 -11.929688 3.9375 -15.359375 L 3.9375 -45.3125 L 13.515625 -45.3125 L 13.515625 -15.6875 C 13.515625 -13.269531 14.390625 -11.363281 16.140625 -9.96875 C 17.890625 -8.582031 20.082031 -7.890625 22.71875 -7.890625 C 25.40625 -7.890625 27.617188 -8.582031 29.359375 -9.96875 C 31.109375 -11.363281 31.984375 -13.269531 31.984375 -15.6875 Z M 31.984375 -45.3125 "/></g></g></g><g fill="#8e48c1" fill-opacity="1"><g transform="translate(92.097171, 206.969437)"><g><path d="M 2.21875 -37.40625 L 2.21875 -45.3125 L 39.421875 -45.3125 L 39.421875 -37.40625 L 25.546875 -37.40625 L 25.546875 0 L 16.078125 0 L 16.078125 -37.40625 Z M 2.21875 -37.40625 "/></g></g></g><g fill="#8e48c1" fill-opacity="1"><g transform="translate(133.734738, 206.969437)"><g><path d="M 45.578125 -22.65625 C 45.578125 -17.71875 44.640625 -13.515625 42.765625 -10.046875 C 40.898438 -6.578125 38.367188 -3.929688 35.171875 -2.109375 C 31.972656 -0.285156 28.367188 0.625 24.359375 0.625 C 20.328125 0.625 16.710938 -0.285156 13.515625 -2.109375 C 10.316406 -3.941406 7.785156 -6.59375 5.921875 -10.0625 C 4.066406 -13.539062 3.140625 -17.738281 3.140625 -22.65625 C 3.140625 -27.59375 4.066406 -31.796875 5.921875 -35.265625 C 7.785156 -38.734375 10.316406 -41.375 13.515625 -43.1875 C 16.710938 -45.007812 20.328125 -45.921875 24.359375 -45.921875 C 28.367188 -45.921875 31.972656 -45.007812 35.171875 -43.1875 C 38.367188 -41.375 40.898438 -38.734375 42.765625 -35.265625 C 44.640625 -31.796875 45.578125 -27.59375 45.578125 -22.65625 Z M 35.859375 -22.65625 C 35.859375 -27.457031 34.8125 -31.125 32.71875 -33.65625 C 30.625 -36.1875 27.835938 -37.453125 24.359375 -37.453125 C 20.878906 -37.453125 18.09375 -36.1875 16 -33.65625 C 13.90625 -31.125 12.859375 -27.457031 12.859375 -22.65625 C 12.859375 -17.863281 13.90625 -14.195312 16 -11.65625 C 18.09375 -9.125 20.878906 -7.859375 24.359375 -7.859375 C 27.835938 -7.859375 30.625 -9.125 32.71875 -11.65625 C 34.8125 -14.195312 35.859375 -17.863281 35.859375 -22.65625 Z M 35.859375 -22.65625 "/></g></g></g><g fill="#8e48c1" fill-opacity="1"><g transform="translate(182.452021, 206.969437)"><g><path d="M 3.9375 -45.3125 L 15.75 -45.3125 L 28.234375 -14.859375 L 28.765625 -14.859375 L 41.234375 -45.3125 L 53.046875 -45.3125 L 53.046875 0 L 43.765625 0 L 43.765625 -29.484375 L 43.375 -29.484375 L 31.65625 -0.21875 L 25.328125 -0.21875 L 13.609375 -29.59375 L 13.234375 -29.59375 L 13.234375 0 L 3.9375 0 Z M 3.9375 -45.3125 "/></g></g></g><g fill="#8e48c1" fill-opacity="1"><g transform="translate(240.018967, 206.969437)"><g><path d="M 11.75 0 L 1.484375 0 L 17.125 -45.3125 L 29.46875 -45.3125 L 45.078125 0 L 34.828125 0 L 31.453125 -10.328125 L 15.109375 -10.328125 Z M 17.546875 -17.8125 L 29.046875 -17.8125 L 23.46875 -34.953125 L 23.125 -34.953125 Z M 17.546875 -17.8125 "/></g></g></g><g fill="#8e48c1" fill-opacity="1"><g transform="translate(286.612365, 206.969437)"><g><path d="M 11.75 0 L 1.484375 0 L 17.125 -45.3125 L 29.46875 -45.3125 L 45.078125 0 L 34.828125 0 L 31.453125 -10.328125 L 15.109375 -10.328125 Z M 17.546875 -17.8125 L 29.046875 -17.8125 L 23.46875 -34.953125 L 23.125 -34.953125 Z M 17.546875 -17.8125 "/></g></g></g><g fill="#8e48c1" fill-opacity="1"><g transform="translate(333.205764, 206.969437)"><g><path d="M 2.21875 -37.40625 L 2.21875 -45.3125 L 39.421875 -45.3125 L 39.421875 -37.40625 L 25.546875 -37.40625 L 25.546875 0 L 16.078125 0 L 16.078125 -37.40625 Z M 2.21875 -37.40625 "/></g></g></g></svg>